# xmcd CD database file
#
# Track frame offsets:
#	150
#	20795
#	40725
#	58012
#
# Disc length: 1011 seconds
#
# Revision: 0
# Processed by: cddbd v1.5.1PL0 Copyright (c) Steve Scherf et al.
# Submitted via: CDex 1.50beta8
#
DISCID=2f03f104
DTITLE=黄坂ルイ(田村ゆかり) - JINKI:EXTEND　SPECIAL FEATURES MINI ALBUM　RUI
DYEAR=2005
DGENRE=Anime
TTITLE0=ある日
TTITLE1=存在
TTITLE2=好敵手
TTITLE3=青空
EXTD=YEAR: 2005.06
EXTT0=
EXTT1=
EXTT2=
EXTT3=
PLAYORDER=
